<svg id="visual" viewBox="0 0 900 600" width="900" height="600" xmlns="http://www.w3.org/2000/svg" xmlns:xlink="http://www.w3.org/1999/xlink" version="1.1"><rect x="0" y="0" width="900" height="600" fill="#131313"></rect><path d="M0 374L13.7 373.3C27.3 372.7 54.7 371.3 82 370.5C109.3 369.7 136.7 369.3 163.8 364.3C191 359.3 218 349.7 245.2 353.7C272.3 357.7 299.7 375.3 327 384.5C354.3 393.7 381.7 394.3 409 387.3C436.3 380.3 463.7 365.7 491 363.7C518.3 361.7 545.7 372.3 573 372.8C600.3 373.3 627.7 363.7 654.8 361.5C682 359.3 709 364.7 736.2 365.8C763.3 367 790.7 364 818 368.3C845.3 372.7 872.7 384.3 886.3 390.2L900 396L900 0L886.3 0C872.7 0 845.3 0 818 0C790.7 0 763.3 0 736.2 0C709 0 682 0 654.8 0C627.7 0 600.3 0 573 0C545.7 0 518.3 0 491 0C463.7 0 436.3 0 409 0C381.7 0 354.3 0 327 0C299.7 0 272.3 0 245.2 0C218 0 191 0 163.8 0C136.7 0 109.3 0 82 0C54.7 0 27.3 0 13.7 0L0 0Z" fill="#050505"></path><path d="M0 295L13.7 297.5C27.3 300 54.7 305 82 310.5C109.3 316 136.7 322 163.8 321.3C191 320.7 218 313.3 245.2 306C272.3 298.7 299.7 291.3 327 295C354.3 298.7 381.7 313.3 409 316C436.3 318.7 463.7 309.3 491 305.2C518.3 301 545.7 302 573 307.5C600.3 313 627.7 323 654.8 322.8C682 322.7 709 312.3 736.2 307C763.3 301.7 790.7 301.3 818 305.2C845.3 309 872.7 317 886.3 321L900 325L900 0L886.3 0C872.7 0 845.3 0 818 0C790.7 0 763.3 0 736.2 0C709 0 682 0 654.8 0C627.7 0 600.3 0 573 0C545.7 0 518.3 0 491 0C463.7 0 436.3 0 409 0C381.7 0 354.3 0 327 0C299.7 0 272.3 0 245.2 0C218 0 191 0 163.8 0C136.7 0 109.3 0 82 0C54.7 0 27.3 0 13.7 0L0 0Z" fill="#040404"></path><path d="M0 230L13.7 237C27.3 244 54.7 258 82 260.8C109.3 263.7 136.7 255.3 163.8 250.8C191 246.3 218 245.7 245.2 252.8C272.3 260 299.7 275 327 274.5C354.3 274 381.7 258 409 257.5C436.3 257 463.7 272 491 272.3C518.3 272.7 545.7 258.3 573 253.5C600.3 248.7 627.7 253.3 654.8 251.3C682 249.3 709 240.7 736.2 243.5C763.3 246.3 790.7 260.7 818 270.5C845.3 280.3 872.7 285.7 886.3 288.3L900 291L900 0L886.3 0C872.7 0 845.3 0 818 0C790.7 0 763.3 0 736.2 0C709 0 682 0 654.8 0C627.7 0 600.3 0 573 0C545.7 0 518.3 0 491 0C463.7 0 436.3 0 409 0C381.7 0 354.3 0 327 0C299.7 0 272.3 0 245.2 0C218 0 191 0 163.8 0C136.7 0 109.3 0 82 0C54.7 0 27.3 0 13.7 0L0 0Z" fill="#040404"></path><path d="M0 184L13.7 184C27.3 184 54.7 184 82 185C109.3 186 136.7 188 163.8 194.5C191 201 218 212 245.2 216C272.3 220 299.7 217 327 219.5C354.3 222 381.7 230 409 228C436.3 226 463.7 214 491 213.5C518.3 213 545.7 224 573 226.3C600.3 228.7 627.7 222.3 654.8 218.8C682 215.3 709 214.7 736.2 215.7C763.3 216.7 790.7 219.3 818 223.2C845.3 227 872.7 232 886.3 234.5L900 237L900 0L886.3 0C872.7 0 845.3 0 818 0C790.7 0 763.3 0 736.2 0C709 0 682 0 654.8 0C627.7 0 600.3 0 573 0C545.7 0 518.3 0 491 0C463.7 0 436.3 0 409 0C381.7 0 354.3 0 327 0C299.7 0 272.3 0 245.2 0C218 0 191 0 163.8 0C136.7 0 109.3 0 82 0C54.7 0 27.3 0 13.7 0L0 0Z" fill="#030303"></path><path d="M0 139L13.7 136.8C27.3 134.7 54.7 130.3 82 138C109.3 145.7 136.7 165.3 163.8 165.7C191 166 218 147 245.2 141.2C272.3 135.3 299.7 142.7 327 151.2C354.3 159.7 381.7 169.3 409 165.3C436.3 161.3 463.7 143.7 491 141.7C518.3 139.7 545.7 153.3 573 157.7C600.3 162 627.7 157 654.8 159.8C682 162.7 709 173.3 736.2 169.5C763.3 165.7 790.7 147.3 818 137.8C845.3 128.3 872.7 127.7 886.3 127.3L900 127L900 0L886.3 0C872.7 0 845.3 0 818 0C790.7 0 763.3 0 736.2 0C709 0 682 0 654.8 0C627.7 0 600.3 0 573 0C545.7 0 518.3 0 491 0C463.7 0 436.3 0 409 0C381.7 0 354.3 0 327 0C299.7 0 272.3 0 245.2 0C218 0 191 0 163.8 0C136.7 0 109.3 0 82 0C54.7 0 27.3 0 13.7 0L0 0Z" fill="#020202"></path><path d="M0 76L13.7 80.8C27.3 85.7 54.7 95.3 82 100C109.3 104.7 136.7 104.3 163.8 101.3C191 98.3 218 92.7 245.2 97.8C272.3 103 299.7 119 327 122C354.3 125 381.7 115 409 109.5C436.3 104 463.7 103 491 103C518.3 103 545.7 104 573 107.5C600.3 111 627.7 117 654.8 117.8C682 118.7 709 114.3 736.2 112.2C763.3 110 790.7 110 818 114C845.3 118 872.7 126 886.3 130L900 134L900 0L886.3 0C872.7 0 845.3 0 818 0C790.7 0 763.3 0 736.2 0C709 0 682 0 654.8 0C627.7 0 600.3 0 573 0C545.7 0 518.3 0 491 0C463.7 0 436.3 0 409 0C381.7 0 354.3 0 327 0C299.7 0 272.3 0 245.2 0C218 0 191 0 163.8 0C136.7 0 109.3 0 82 0C54.7 0 27.3 0 13.7 0L0 0Z" fill="#010101"></path><path d="M0 82L13.7 74.5C27.3 67 54.7 52 82 51.7C109.3 51.3 136.7 65.7 163.8 70.2C191 74.7 218 69.3 245.2 60C272.3 50.7 299.7 37.3 327 40C354.3 42.7 381.7 61.3 409 65.8C436.3 70.3 463.7 60.7 491 57.2C518.3 53.7 545.7 56.3 573 58.3C600.3 60.3 627.7 61.7 654.8 56C682 50.3 709 37.7 736.2 39C763.3 40.3 790.7 55.7 818 63.5C845.3 71.3 872.7 71.7 886.3 71.8L900 72L900 0L886.3 0C872.7 0 845.3 0 818 0C790.7 0 763.3 0 736.2 0C709 0 682 0 654.8 0C627.7 0 600.3 0 573 0C545.7 0 518.3 0 491 0C463.7 0 436.3 0 409 0C381.7 0 354.3 0 327 0C299.7 0 272.3 0 245.2 0C218 0 191 0 163.8 0C136.7 0 109.3 0 82 0C54.7 0 27.3 0 13.7 0L0 0Z" fill="#000000"></path></svg>