<svg id="visual" viewBox="0 0 900 600" width="900" height="600" xmlns="http://www.w3.org/2000/svg" xmlns:xlink="http://www.w3.org/1999/xlink" version="1.1"><rect x="0" y="0" width="900" height="600" fill="#000000"></rect><path d="M0 224L13.7 224.7C27.3 225.3 54.7 226.7 82 227.5C109.3 228.3 136.7 228.7 163.8 233.7C191 238.7 218 248.3 245.2 244.3C272.3 240.3 299.7 222.7 327 213.5C354.3 204.3 381.7 203.7 409 210.7C436.3 217.7 463.7 232.3 491 234.3C518.3 236.3 545.7 225.7 573 225.2C600.3 224.7 627.7 234.3 654.8 236.5C682 238.7 709 233.3 736.2 232.2C763.3 231 790.7 234 818 229.7C845.3 225.3 872.7 213.7 886.3 207.8L900 202L900 601L886.3 601C872.7 601 845.3 601 818 601C790.7 601 763.3 601 736.2 601C709 601 682 601 654.8 601C627.7 601 600.3 601 573 601C545.7 601 518.3 601 491 601C463.7 601 436.3 601 409 601C381.7 601 354.3 601 327 601C299.7 601 272.3 601 245.2 601C218 601 191 601 163.8 601C136.7 601 109.3 601 82 601C54.7 601 27.3 601 13.7 601L0 601Z" fill="#050505"></path><path d="M0 303L13.7 300.5C27.3 298 54.7 293 82 287.5C109.3 282 136.7 276 163.8 276.7C191 277.3 218 284.7 245.2 292C272.3 299.3 299.7 306.7 327 303C354.3 299.3 381.7 284.7 409 282C436.3 279.3 463.7 288.7 491 292.8C518.3 297 545.7 296 573 290.5C600.3 285 627.7 275 654.8 275.2C682 275.3 709 285.7 736.2 291C763.3 296.3 790.7 296.7 818 292.8C845.3 289 872.7 281 886.3 277L900 273L900 601L886.3 601C872.7 601 845.3 601 818 601C790.7 601 763.3 601 736.2 601C709 601 682 601 654.8 601C627.7 601 600.3 601 573 601C545.7 601 518.3 601 491 601C463.7 601 436.3 601 409 601C381.7 601 354.3 601 327 601C299.7 601 272.3 601 245.2 601C218 601 191 601 163.8 601C136.7 601 109.3 601 82 601C54.7 601 27.3 601 13.7 601L0 601Z" fill="#080808"></path><path d="M0 368L13.7 361C27.3 354 54.7 340 82 337.2C109.3 334.3 136.7 342.7 163.8 347.2C191 351.7 218 352.3 245.2 345.2C272.3 338 299.7 323 327 323.5C354.3 324 381.7 340 409 340.5C436.3 341 463.7 326 491 325.7C518.3 325.3 545.7 339.7 573 344.5C600.3 349.3 627.7 344.7 654.8 346.7C682 348.7 709 357.3 736.2 354.5C763.3 351.7 790.7 337.3 818 327.5C845.3 317.7 872.7 312.3 886.3 309.7L900 307L900 601L886.3 601C872.7 601 845.3 601 818 601C790.7 601 763.3 601 736.2 601C709 601 682 601 654.8 601C627.7 601 600.3 601 573 601C545.7 601 518.3 601 491 601C463.7 601 436.3 601 409 601C381.7 601 354.3 601 327 601C299.7 601 272.3 601 245.2 601C218 601 191 601 163.8 601C136.7 601 109.3 601 82 601C54.7 601 27.3 601 13.7 601L0 601Z" fill="#0b0b0b"></path><path d="M0 414L13.7 414C27.3 414 54.7 414 82 413C109.3 412 136.7 410 163.8 403.5C191 397 218 386 245.2 382C272.3 378 299.7 381 327 378.5C354.3 376 381.7 368 409 370C436.3 372 463.7 384 491 384.5C518.3 385 545.7 374 573 371.7C600.3 369.3 627.7 375.7 654.8 379.2C682 382.7 709 383.3 736.2 382.3C763.3 381.3 790.7 378.7 818 374.8C845.3 371 872.7 366 886.3 363.5L900 361L900 601L886.3 601C872.7 601 845.3 601 818 601C790.7 601 763.3 601 736.2 601C709 601 682 601 654.8 601C627.7 601 600.3 601 573 601C545.7 601 518.3 601 491 601C463.7 601 436.3 601 409 601C381.7 601 354.3 601 327 601C299.7 601 272.3 601 245.2 601C218 601 191 601 163.8 601C136.7 601 109.3 601 82 601C54.7 601 27.3 601 13.7 601L0 601Z" fill="#0d0d0d"></path><path d="M0 459L13.7 461.2C27.3 463.3 54.7 467.7 82 460C109.3 452.3 136.7 432.7 163.8 432.3C191 432 218 451 245.2 456.8C272.3 462.7 299.7 455.3 327 446.8C354.3 438.3 381.7 428.7 409 432.7C436.3 436.7 463.7 454.3 491 456.3C518.3 458.3 545.7 444.7 573 440.3C600.3 436 627.7 441 654.8 438.2C682 435.3 709 424.7 736.2 428.5C763.3 432.3 790.7 450.7 818 460.2C845.3 469.7 872.7 470.3 886.3 470.7L900 471L900 601L886.3 601C872.7 601 845.3 601 818 601C790.7 601 763.3 601 736.2 601C709 601 682 601 654.8 601C627.7 601 600.3 601 573 601C545.7 601 518.3 601 491 601C463.7 601 436.3 601 409 601C381.7 601 354.3 601 327 601C299.7 601 272.3 601 245.2 601C218 601 191 601 163.8 601C136.7 601 109.3 601 82 601C54.7 601 27.3 601 13.7 601L0 601Z" fill="#0f0f0f"></path><path d="M0 522L13.7 517.2C27.3 512.3 54.7 502.7 82 498C109.3 493.3 136.7 493.7 163.8 496.7C191 499.7 218 505.3 245.2 500.2C272.3 495 299.7 479 327 476C354.3 473 381.7 483 409 488.5C436.3 494 463.7 495 491 495C518.3 495 545.7 494 573 490.5C600.3 487 627.7 481 654.8 480.2C682 479.3 709 483.7 736.2 485.8C763.3 488 790.7 488 818 484C845.3 480 872.7 472 886.3 468L900 464L900 601L886.3 601C872.7 601 845.3 601 818 601C790.7 601 763.3 601 736.2 601C709 601 682 601 654.8 601C627.7 601 600.3 601 573 601C545.7 601 518.3 601 491 601C463.7 601 436.3 601 409 601C381.7 601 354.3 601 327 601C299.7 601 272.3 601 245.2 601C218 601 191 601 163.8 601C136.7 601 109.3 601 82 601C54.7 601 27.3 601 13.7 601L0 601Z" fill="#111111"></path><path d="M0 516L13.7 523.5C27.3 531 54.7 546 82 546.3C109.3 546.7 136.7 532.3 163.8 527.8C191 523.3 218 528.7 245.2 538C272.3 547.3 299.7 560.7 327 558C354.3 555.3 381.7 536.7 409 532.2C436.3 527.7 463.7 537.3 491 540.8C518.3 544.3 545.7 541.7 573 539.7C600.3 537.7 627.7 536.3 654.8 542C682 547.7 709 560.3 736.2 559C763.3 557.7 790.7 542.3 818 534.5C845.3 526.7 872.7 526.3 886.3 526.2L900 526L900 601L886.3 601C872.7 601 845.3 601 818 601C790.7 601 763.3 601 736.2 601C709 601 682 601 654.8 601C627.7 601 600.3 601 573 601C545.7 601 518.3 601 491 601C463.7 601 436.3 601 409 601C381.7 601 354.3 601 327 601C299.7 601 272.3 601 245.2 601C218 601 191 601 163.8 601C136.7 601 109.3 601 82 601C54.7 601 27.3 601 13.7 601L0 601Z" fill="#131313"></path></svg>